{
    "asset" : {
        "generator" : "Khronos glTF Blender I/O v1.1.46",
        "version" : "2.0"
    },
    "scene" : 0,
    "scenes" : [
        {
            "name" : "Scene",
            "nodes" : [
                2
            ]
        }
    ],
    "nodes" : [
        {
            "mesh" : 0,
            "name" : "MillBody"
        },
        {
            "mesh" : 1,
            "name" : "MillTop",
            "rotation" : [
                -0.6821311712265015,
                0.14337626099586487,
                0.5333572030067444,
                0.47923946380615234
            ],
            "translation" : [
                2.9444947242736816,
                0.1827850341796875,
                -4.56917667388916
            ]
        },
        {
            "children" : [
                0,
                1
            ],
            "name" : "Mill",
            "rotation" : [
                0.7071067690849304,
                0,
                0,
                0.7071067690849304
            ]
        }
    ],
    "animations" : [
        {
            "channels" : [
                {
                    "sampler" : 0,
                    "target" : {
                        "node" : 1,
                        "path" : "rotation"
                    }
                },
                {
                    "sampler" : 1,
                    "target" : {
                        "node" : 1,
                        "path" : "translation"
                    }
                },
                {
                    "sampler" : 2,
                    "target" : {
                        "node" : 1,
                        "path" : "scale"
                    }
                }
            ],
            "name" : "MillSpinning",
            "samplers" : [
                {
                    "input" : 35,
                    "interpolation" : "LINEAR",
                    "output" : 36
                },
                {
                    "input" : 35,
                    "interpolation" : "LINEAR",
                    "output" : 37
                },
                {
                    "input" : 35,
                    "interpolation" : "LINEAR",
                    "output" : 38
                }
            ]
        }
    ],
    "materials" : [
        {
            "emissiveFactor" : [
                0,
                0,
                0
            ],
            "name" : "Roof",
            "pbrMetallicRoughness" : {
                "baseColorFactor" : [
                    0.5583406686782837,
                    0.2015562504529953,
                    0.030713476240634918,
                    1
                ],
                "metallicFactor" : 0,
                "roughnessFactor" : 1
            }
        },
        {
            "emissiveFactor" : [
                0,
                0,
                0
            ],
            "name" : "MillWall",
            "pbrMetallicRoughness" : {
                "baseColorFactor" : [
                    0.8468735218048096,
                    0.7681514024734497,
                    0.6444798707962036,
                    1
                ],
                "metallicFactor" : 0,
                "roughnessFactor" : 0.5
            }
        },
        {
            "emissiveFactor" : [
                0,
                0,
                0
            ],
            "name" : "MillWood",
            "pbrMetallicRoughness" : {
                "baseColorFactor" : [
                    0.12477187067270279,
                    0.029556823894381523,
                    0,
                    1
                ],
                "metallicFactor" : 0,
                "roughnessFactor" : 0.5
            }
        },
        {
            "emissiveFactor" : [
                0,
                0,
                0
            ],
            "name" : "MillBoard",
            "pbrMetallicRoughness" : {
                "baseColorFactor" : [
                    0.8148467540740967,
                    0.36130672693252563,
                    0.10461654514074326,
                    1
                ],
                "metallicFactor" : 0,
                "roughnessFactor" : 0.5
            }
        },
        {
            "emissiveFactor" : [
                0,
                0,
                0
            ],
            "name" : "MillStick",
            "pbrMetallicRoughness" : {
                "baseColorFactor" : [
                    0.09530752897262573,
                    0.03433980792760849,
                    0,
                    1
                ],
                "metallicFactor" : 0,
                "roughnessFactor" : 0.5
            }
        }
    ],
    "meshes" : [
        {
            "name" : "MillBody",
            "primitives" : [
                {
                    "attributes" : {
                        "POSITION" : 0,
                        "NORMAL" : 1,
                        "TEXCOORD_0" : 2,
                        "TEXCOORD_1" : 3,
                        "TEXCOORD_2" : 4,
                        "COLOR_0" : 5
                    },
                    "indices" : 6,
                    "material" : 0
                },
                {
                    "attributes" : {
                        "POSITION" : 7,
                        "NORMAL" : 8,
                        "TEXCOORD_0" : 9,
                        "TEXCOORD_1" : 10,
                        "TEXCOORD_2" : 11,
                        "COLOR_0" : 12
                    },
                    "indices" : 13,
                    "material" : 1
                },
                {
                    "attributes" : {
                        "POSITION" : 14,
                        "NORMAL" : 15,
                        "TEXCOORD_0" : 16,
                        "TEXCOORD_1" : 17,
                        "TEXCOORD_2" : 18,
                        "COLOR_0" : 19
                    },
                    "indices" : 20,
                    "material" : 2
                }
            ]
        },
        {
            "name" : "MillTop",
            "primitives" : [
                {
                    "attributes" : {
                        "POSITION" : 21,
                        "NORMAL" : 22,
                        "TEXCOORD_0" : 23,
                        "TEXCOORD_1" : 24,
                        "TEXCOORD_2" : 25,
                        "COLOR_0" : 26
                    },
                    "indices" : 27,
                    "material" : 3
                },
                {
                    "attributes" : {
                        "POSITION" : 28,
                        "NORMAL" : 29,
                        "TEXCOORD_0" : 30,
                        "TEXCOORD_1" : 31,
                        "TEXCOORD_2" : 32,
                        "COLOR_0" : 33
                    },
                    "indices" : 34,
                    "material" : 4
                }
            ]
        }
    ],
    "accessors" : [
        {
            "bufferView" : 0,
            "componentType" : 5126,
            "count" : 2910,
            "max" : [
                3.6916415691375732,
                3.7871832847595215,
                0.09137153625488281
            ],
            "min" : [
                -3.462602376937866,
                -3.907803535461426,
                -5.005822658538818
            ],
            "type" : "VEC3"
        },
        {
            "bufferView" : 1,
            "componentType" : 5126,
            "count" : 2910,
            "type" : "VEC3"
        },
        {
            "bufferView" : 2,
            "componentType" : 5126,
            "count" : 2910,
            "type" : "VEC2"
        },
        {
            "bufferView" : 3,
            "componentType" : 5126,
            "count" : 2910,
            "type" : "VEC2"
        },
        {
            "bufferView" : 4,
            "componentType" : 5126,
            "count" : 2910,
            "type" : "VEC2"
        },
        {
            "bufferView" : 5,
            "componentType" : 5126,
            "count" : 2910,
            "type" : "VEC4"
        },
        {
            "bufferView" : 6,
            "componentType" : 5123,
            "count" : 5148,
            "type" : "SCALAR"
        },
        {
            "bufferView" : 7,
            "componentType" : 5126,
            "count" : 1599,
            "max" : [
                3.136723279953003,
                3.159013509750366,
                0.06804037094116211
            ],
            "min" : [
                -2.8176424503326416,
                -2.6999709606170654,
                -2.9638190269470215
            ],
            "type" : "VEC3"
        },
        {
            "bufferView" : 8,
            "componentType" : 5126,
            "count" : 1599,
            "type" : "VEC3"
        },
        {
            "bufferView" : 9,
            "componentType" : 5126,
            "count" : 1599,
            "type" : "VEC2"
        },
        {
            "bufferView" : 10,
            "componentType" : 5126,
            "count" : 1599,
            "type" : "VEC2"
        },
        {
            "bufferView" : 11,
            "componentType" : 5126,
            "count" : 1599,
            "type" : "VEC2"
        },
        {
            "bufferView" : 12,
            "componentType" : 5126,
            "count" : 1599,
            "type" : "VEC4"
        },
        {
            "bufferView" : 13,
            "componentType" : 5123,
            "count" : 2127,
            "type" : "SCALAR"
        },
        {
            "bufferView" : 14,
            "componentType" : 5126,
            "count" : 241,
            "max" : [
                3.3677821159362793,
                2.8190298080444336,
                0.08646154403686523
            ],
            "min" : [
                -2.5321404933929443,
                -4.093664169311523,
                -4.562617778778076
            ],
            "type" : "VEC3"
        },
        {
            "bufferView" : 15,
            "componentType" : 5126,
            "count" : 241,
            "type" : "VEC3"
        },
        {
            "bufferView" : 16,
            "componentType" : 5126,
            "count" : 241,
            "type" : "VEC2"
        },
        {
            "bufferView" : 17,
            "componentType" : 5126,
            "count" : 241,
            "type" : "VEC2"
        },
        {
            "bufferView" : 18,
            "componentType" : 5126,
            "count" : 241,
            "type" : "VEC2"
        },
        {
            "bufferView" : 19,
            "componentType" : 5126,
            "count" : 241,
            "type" : "VEC4"
        },
        {
            "bufferView" : 20,
            "componentType" : 5123,
            "count" : 435,
            "type" : "SCALAR"
        },
        {
            "bufferView" : 21,
            "componentType" : 5126,
            "count" : 753,
            "max" : [
                0.9060677886009216,
                1.7526589632034302,
                1.5855505466461182
            ],
            "min" : [
                -1.267794132232666,
                -1.678241491317749,
                -1.3008313179016113
            ],
            "type" : "VEC3"
        },
        {
            "bufferView" : 22,
            "componentType" : 5126,
            "count" : 753,
            "type" : "VEC3"
        },
        {
            "bufferView" : 23,
            "componentType" : 5126,
            "count" : 753,
            "type" : "VEC2"
        },
        {
            "bufferView" : 24,
            "componentType" : 5126,
            "count" : 753,
            "type" : "VEC2"
        },
        {
            "bufferView" : 25,
            "componentType" : 5126,
            "count" : 753,
            "type" : "VEC2"
        },
        {
            "bufferView" : 26,
            "componentType" : 5126,
            "count" : 753,
            "type" : "VEC4"
        },
        {
            "bufferView" : 27,
            "componentType" : 5123,
            "count" : 765,
            "type" : "SCALAR"
        },
        {
            "bufferView" : 28,
            "componentType" : 5126,
            "count" : 843,
            "max" : [
                0.8448000550270081,
                1.6804550886154175,
                1.5848636627197266
            ],
            "min" : [
                -1.099961757659912,
                -1.6282341480255127,
                -1.3407387733459473
            ],
            "type" : "VEC3"
        },
        {
            "bufferView" : 29,
            "componentType" : 5126,
            "count" : 843,
            "type" : "VEC3"
        },
        {
            "bufferView" : 30,
            "componentType" : 5126,
            "count" : 843,
            "type" : "VEC2"
        },
        {
            "bufferView" : 31,
            "componentType" : 5126,
            "count" : 843,
            "type" : "VEC2"
        },
        {
            "bufferView" : 32,
            "componentType" : 5126,
            "count" : 843,
            "type" : "VEC2"
        },
        {
            "bufferView" : 33,
            "componentType" : 5126,
            "count" : 843,
            "type" : "VEC4"
        },
        {
            "bufferView" : 34,
            "componentType" : 5123,
            "count" : 855,
            "type" : "SCALAR"
        },
        {
            "bufferView" : 35,
            "componentType" : 5126,
            "count" : 161,
            "max" : [
                6.666666666666667
            ],
            "min" : [
                0
            ],
            "type" : "SCALAR"
        },
        {
            "bufferView" : 36,
            "componentType" : 5126,
            "count" : 161,
            "type" : "VEC4"
        },
        {
            "bufferView" : 37,
            "componentType" : 5126,
            "count" : 161,
            "type" : "VEC3"
        },
        {
            "bufferView" : 38,
            "componentType" : 5126,
            "count" : 161,
            "type" : "VEC3"
        }
    ],
    "bufferViews" : [
        {
            "buffer" : 0,
            "byteLength" : 34920,
            "byteOffset" : 0
        },
        {
            "buffer" : 0,
            "byteLength" : 34920,
            "byteOffset" : 34920
        },
        {
            "buffer" : 0,
            "byteLength" : 23280,
            "byteOffset" : 69840
        },
        {
            "buffer" : 0,
            "byteLength" : 23280,
            "byteOffset" : 93120
        },
        {
            "buffer" : 0,
            "byteLength" : 23280,
            "byteOffset" : 116400
        },
        {
            "buffer" : 0,
            "byteLength" : 46560,
            "byteOffset" : 139680
        },
        {
            "buffer" : 0,
            "byteLength" : 10296,
            "byteOffset" : 186240
        },
        {
            "buffer" : 0,
            "byteLength" : 19188,
            "byteOffset" : 196536
        },
        {
            "buffer" : 0,
            "byteLength" : 19188,
            "byteOffset" : 215724
        },
        {
            "buffer" : 0,
            "byteLength" : 12792,
            "byteOffset" : 234912
        },
        {
            "buffer" : 0,
            "byteLength" : 12792,
            "byteOffset" : 247704
        },
        {
            "buffer" : 0,
            "byteLength" : 12792,
            "byteOffset" : 260496
        },
        {
            "buffer" : 0,
            "byteLength" : 25584,
            "byteOffset" : 273288
        },
        {
            "buffer" : 0,
            "byteLength" : 4254,
            "byteOffset" : 298872
        },
        {
            "buffer" : 0,
            "byteLength" : 2892,
            "byteOffset" : 303128
        },
        {
            "buffer" : 0,
            "byteLength" : 2892,
            "byteOffset" : 306020
        },
        {
            "buffer" : 0,
            "byteLength" : 1928,
            "byteOffset" : 308912
        },
        {
            "buffer" : 0,
            "byteLength" : 1928,
            "byteOffset" : 310840
        },
        {
            "buffer" : 0,
            "byteLength" : 1928,
            "byteOffset" : 312768
        },
        {
            "buffer" : 0,
            "byteLength" : 3856,
            "byteOffset" : 314696
        },
        {
            "buffer" : 0,
            "byteLength" : 870,
            "byteOffset" : 318552
        },
        {
            "buffer" : 0,
            "byteLength" : 9036,
            "byteOffset" : 319424
        },
        {
            "buffer" : 0,
            "byteLength" : 9036,
            "byteOffset" : 328460
        },
        {
            "buffer" : 0,
            "byteLength" : 6024,
            "byteOffset" : 337496
        },
        {
            "buffer" : 0,
            "byteLength" : 6024,
            "byteOffset" : 343520
        },
        {
            "buffer" : 0,
            "byteLength" : 6024,
            "byteOffset" : 349544
        },
        {
            "buffer" : 0,
            "byteLength" : 12048,
            "byteOffset" : 355568
        },
        {
            "buffer" : 0,
            "byteLength" : 1530,
            "byteOffset" : 367616
        },
        {
            "buffer" : 0,
            "byteLength" : 10116,
            "byteOffset" : 369148
        },
        {
            "buffer" : 0,
            "byteLength" : 10116,
            "byteOffset" : 379264
        },
        {
            "buffer" : 0,
            "byteLength" : 6744,
            "byteOffset" : 389380
        },
        {
            "buffer" : 0,
            "byteLength" : 6744,
            "byteOffset" : 396124
        },
        {
            "buffer" : 0,
            "byteLength" : 6744,
            "byteOffset" : 402868
        },
        {
            "buffer" : 0,
            "byteLength" : 13488,
            "byteOffset" : 409612
        },
        {
            "buffer" : 0,
            "byteLength" : 1710,
            "byteOffset" : 423100
        },
        {
            "buffer" : 0,
            "byteLength" : 644,
            "byteOffset" : 424812
        },
        {
            "buffer" : 0,
            "byteLength" : 2576,
            "byteOffset" : 425456
        },
        {
            "buffer" : 0,
            "byteLength" : 1932,
            "byteOffset" : 428032
        },
        {
            "buffer" : 0,
            "byteLength" : 1932,
            "byteOffset" : 429964
        }
    ],
    "buffers" : [
        {
            "byteLength" : 431896,
            "uri" : "data:application/octet-stream;base64,"
        }
    ]
}
